<svg width="26" height="36" viewBox="0 0 26 36" fill="none" xmlns="http://www.w3.org/2000/svg" xmlns:xlink="http://www.w3.org/1999/xlink">
<path d="M18.987,32.317C22.954,26.561 22.487,24.286 23.538,21.073C18.287,19.467 15.136,24.687 13.036,26.293C10.936,27.9 5.471,30.274 2.671,24.25C1.971,29.471 4.751,31.514 8.135,33.923L13.036,34.616L18.987,32.317Z" fill="#FCCC1F"/>
<path d="M12.115,36C5.423,36 0,29.552 0,21.6C0,13.649 12.115,0 12.115,0C12.115,0 24.231,13.647 24.231,21.6C24.231,29.554 18.805,36 12.115,36ZM12.115,3.6C12.115,3.6 2.423,14.974 2.423,21.6C2.423,28.229 6.763,33.6 12.115,33.6C17.468,33.6 21.808,28.227 21.808,21.6C21.808,14.972 12.115,3.6 12.115,3.6Z" clip-rule="evenodd" fill-rule="evenodd" fill="#FCCC1F"/>
</svg>
