<svg width="46" height="44" viewBox="0 0 46 44" fill="none" xmlns="http://www.w3.org/2000/svg" xmlns:xlink="http://www.w3.org/1999/xlink">
<path d="M35.626,23.467L35.626,20.534L44.426,20.534L44.426,23.467L35.626,23.467ZM32.795,9.554L36.946,5.406L39.019,7.48L34.869,11.631L32.795,9.554ZM22.426,32.267C16.755,32.267 12.159,27.671 12.159,22C12.159,16.327 16.755,11.734 22.426,11.734C28.096,11.734 32.692,16.327 32.692,22C32.692,27.671 28.096,32.267 22.426,32.267ZM22.426,14.649C18.366,14.649 15.078,17.941 15.078,22C15.078,26.06 18.369,29.348 22.426,29.348C26.482,29.348 29.774,26.06 29.774,22C29.774,17.941 26.482,14.649 22.426,14.649ZM20.959,0L23.892,0L23.892,8.8L20.959,8.8L20.959,0ZM5.832,36.517L9.982,32.37L12.056,34.446L7.908,38.594L5.832,36.517ZM5.832,7.48L7.908,5.406L12.056,9.554L9.982,11.631L5.832,7.48ZM9.226,23.467L0.426,23.467L0.426,20.534L9.226,20.534L9.226,23.467ZM23.892,44L20.959,44L20.959,35.2L23.892,35.2L23.892,44ZM39.019,36.517L36.946,38.594L32.795,34.446L34.869,32.37L39.019,36.517Z" clip-rule="evenodd" fill-rule="evenodd" fill="#FCCC1F"/>
<path d="M22.463,22.924L22.473,22.867L27.387,27.55C28.901,26.197 29.854,24.228 29.854,22.038C29.854,17.955 26.545,14.646 22.463,14.645L22.463,22.924Z" clip-rule="evenodd" fill-rule="evenodd" fill="#FCCC1F"/>
</svg>
